<svg width="513" height="589" xmlns="http://www.w3.org/2000/svg" version="1.1">

 <g>
  <title>Layer 1</title>
  <path id="svg_1" fill="#00DE87" d="m0,0c169.29,0 338.58,0 513,0c0,194.37 0,388.74 0,589c-169.29,0 -338.58,0 -513,0c0,-194.37 0,-388.74 0,-589z"/>
  <path id="svg_2" fill="#DC8054" d="m262,73c1.91656,1.02515 3.81506,2.08443 5.69922,3.16797c1.11327,0.63817 2.22653,1.27633 3.37353,1.93384c1.20497,0.69515 2.40988,1.39038 3.61475,2.08569c1.25685,0.72219 2.51385,1.44411 3.771,2.16577c3.22787,1.85416 6.45339,3.71237 9.67804,5.57215c2.85871,1.6485 5.71864,3.2949 8.5783,4.94177c5.35794,3.0876 10.71309,6.18002 16.06739,9.27392c5.40448,3.12214 10.81124,6.2403 16.21777,9.35889c2.16668,1.24998 4.33334,2.49998 6.5,3.75c1.60875,0.92813 1.60875,0.92813 3.25,1.875c61.75,35.625 61.75,35.625 65.00464,37.50269c2.15119,1.24106 4.3024,2.48211 6.45361,3.72314c5.05138,2.91415 10.10265,5.82849 15.15354,8.7435c1.78888,1.0324 3.5778,2.06475 5.36673,3.09708c2.24486,1.29545 4.48965,2.59102 6.73437,3.88672c1.01643,0.58652 2.03285,1.17304 3.08008,1.77734c0.88712,0.512 1.77423,1.024 2.68823,1.55151c2.14536,1.23432 4.29268,2.46493 6.44185,3.69258c1.09789,0.62715 2.19579,1.25429 3.32695,1.90044c0.29669,28.65454 0.52669,57.3089 0.66385,85.96467c0.01626,3.3845 0.03308,6.769 0.05026,10.15349c0.00341,0.67378 0.00682,1.34756 0.01033,2.04176c0.05654,10.9041 0.15902,21.80731 0.27855,32.71088c0.12165,11.19156 0.19282,22.38282 0.22016,33.57504c0.01695,6.28557 0.05679,12.56912 0.15134,18.85404c0.08829,5.91693 0.11545,11.83101 0.09591,17.74853c0.00357,2.17053 0.02941,4.34115 0.07927,6.5111c0.34883,15.9661 0.34883,15.9661 -2.79898,20.06877c-3.48277,3.08142 -7.44383,4.67299 -11.75069,6.37172c-2.03232,1.14708 -4.04986,2.32123 -6.04297,3.53516c-2.04707,1.17769 -4.09529,2.35342 -6.14453,3.52734c-1.70293,0.97901 -3.40585,1.95803 -5.10867,2.93723c-1.74778,1.00474 -3.49604,2.00867 -5.24436,3.01248c-5.49086,3.15502 -10.97494,6.32177 -16.45947,9.48779c-2.16663,1.25006 -4.3333,2.50006 -6.5,3.75c-1.0725,0.61875 -2.145,1.2375 -3.25,1.875c-61.75,35.625 -61.75,35.625 -65.00049,37.50024c-2.16508,1.24912 -4.33012,2.4983 -6.49512,3.74756c-5.44055,3.13922 -10.88186,6.27711 -16.3247,9.41236c-1.08451,0.62519 -2.16901,1.25039 -3.28638,1.89453c-2.16158,1.24525 -4.32417,2.48877 -6.48779,3.73047c-5.51695,3.17246 -11.00164,6.38811 -16.44849,9.67968c-1.64234,0.98408 -1.64234,0.98408 -3.31787,1.98804c-2.08709,1.25299 -4.16726,2.51761 -6.23926,3.79541c-0.93247,0.55744 -1.86495,1.11488 -2.82568,1.68921c-0.8138,0.49629 -1.6276,0.99258 -2.46607,1.50391c-2.93889,1.1635 -4.37401,0.87527 -7.35815,-0.06641c-1.83911,-0.80933 -1.83911,-0.80933 -3.58203,-1.79297c-0.6716,-0.37536 -1.3432,-0.75072 -2.03516,-1.13745c-0.72445,-0.41484 -1.4489,-0.82967 -2.19531,-1.25708c-0.77988,-0.43997 -1.55977,-0.87995 -2.36328,-1.33325c-8.54404,-4.8419 -17.01434,-9.81298 -25.48828,-14.77612c-6.38876,-3.73948 -12.7971,-7.44438 -19.21094,-11.14063c-1.07959,-0.62221 -2.15918,-1.24443 -3.27148,-1.8855c-2.19035,-1.26212 -4.38078,-2.52408 -6.57129,-3.78589c-5.42883,-3.12791 -10.85542,-6.25969 -16.28223,-9.39111c-2.16666,-1.25002 -4.33332,-2.50002 -6.5,-3.75c-13,-7.5 -26,-15 -39,-22.5c-1.07298,-0.61899 -2.14597,-1.23798 -3.25146,-1.87573c-2.16192,-1.24734 -4.3237,-2.49489 -6.48536,-3.74268c-5.48833,-3.16768 -10.97901,-6.33116 -16.47412,-9.48706c-1.11633,-0.64195 -2.23265,-1.2839 -3.38281,-1.94531c-2.07465,-1.19292 -4.15007,-2.38451 -6.22656,-3.57422c-1.96645,-1.13149 -3.91961,-2.28638 -5.85857,-3.46434c-2.84717,-1.67894 -5.75493,-3.04708 -8.77319,-4.39179c-13.29846,-6.31518 -13.29846,-6.31518 -16.19359,-12.03055c-1.79226,-6.50017 -1.36244,-13.1727 -1.12485,-19.84672c0.00565,-2.22834 0.00246,-4.45671 -0.00885,-6.68503c-0.00572,-6.02305 0.11148,-12.03808 0.25148,-18.05927c0.1254,-6.30163 0.1368,-12.60347 0.16051,-18.90615c0.05502,-10.56939 0.17976,-21.13617 0.35858,-31.70404c0.1839,-10.87941 0.32531,-21.75802 0.41016,-32.63867c0.00525,-0.67191 0.01051,-1.34382 0.01592,-2.03609c0.0261,-3.37115 0.05138,-6.7423 0.07624,-10.11346c0.20881,-27.91833 0.56038,-55.83341 1.00647,-83.74889c0.77307,-0.42821 1.54614,-0.85642 2.34264,-1.29761c2.90798,-1.61136 5.81547,-3.22361 8.72265,-4.83642c1.25085,-0.69371 2.50188,-1.38707 3.75312,-2.08008c8.30971,-4.60278 16.55551,-9.29402 24.72065,-14.14917c5.6034,-3.32548 11.25251,-6.57166 16.89844,-9.82422c1.10739,-0.63809 2.21477,-1.27617 3.35571,-1.93359c2.27048,-1.30798 4.54107,-2.61576 6.81177,-3.92334c5.46672,-3.14889 10.93077,-6.3024 16.39502,-9.45557c2.16665,-1.25002 4.33332,-2.50002 6.5,-3.75c1.0725,-0.61875 2.145,-1.2375 3.25,-1.875c35.75,-20.625 35.75,-20.625 39.00146,-22.50073c2.16192,-1.24734 4.3237,-2.49489 6.48536,-3.74268c5.48833,-3.16768 10.97901,-6.33116 16.47412,-9.48706c1.65769,-0.95338 1.65769,-0.95338 3.34887,-1.92602c2.18751,-1.25767 4.37613,-2.51341 6.56592,-3.76709c5.14872,-2.95986 10.2487,-5.96974 15.27661,-9.13111c0.91669,-0.57146 1.83337,-1.14291 2.77784,-1.73169c1.70768,-1.07114 3.40601,-2.15742 5.09277,-3.26123c1.12753,-0.7054 1.12753,-0.7054 2.27783,-1.42505c0.64622,-0.41773 1.29245,-0.83547 1.95825,-1.26587c2.92725,-0.93578 4.28815,-0.00052 6.99097,1.36353z"/>
  <path id="svg_3" fill="#DDFE07" d="m263,156c1.81322,0.93279 3.59972,1.91894 5.35938,2.94922c1.52947,0.88945 1.52947,0.88945 3.08984,1.79687c1.63389,0.961 1.63389,0.961 3.30078,1.94141c1.15721,0.67507 2.31477,1.34953 3.47266,2.02344c2.40305,1.39922 4.80458,2.80099 7.20507,4.20459c5.51014,3.21896 11.04235,6.39967 16.57227,9.58447c2.16677,1.24982 4.33344,2.49982 6.5,3.75c1.0725,0.61875 2.145,1.2375 3.25,1.875c4.875,2.8125 4.875,2.8125 9.75,5.625c1.07339,0.61923 2.14677,1.23847 3.25269,1.87646c2.15781,1.24495 4.31552,2.49007 6.47314,3.73536c5.55134,3.20371 11.10454,6.40412 16.66089,9.59912c1.70833,0.98323 1.70833,0.98323 3.45117,1.98633c2.13998,1.23158 4.28055,2.46215 6.42188,3.6914c1.95963,1.12835 3.90148,2.28834 5.82132,3.48314c2.61314,1.43554 4.48716,2.25641 7.25787,3.07108c4.69269,1.63096 8.35917,3.58954 11.16104,7.80711c2.70804,9.4786 1.79083,20.02017 1.52091,29.78841c-0.09416,3.98343 -0.10261,7.96706 -0.12038,11.95144c-0.04651,7.53426 -0.16944,15.06522 -0.32024,22.59803c-0.16802,8.57999 -0.25023,17.16015 -0.32544,25.74137c-0.15653,17.64211 -0.42014,35.28117 -0.75485,52.92075c-0.71314,0.39824 -1.42628,0.79649 -2.16103,1.2068c-2.68592,1.50046 -5.37142,3.0017 -8.05664,4.50342c-1.71769,0.96033 -3.43585,1.9198 -5.15403,2.87926c-6.05857,3.38903 -12.09506,6.80635 -18.0658,10.34802c-0.69498,0.41217 -1.38996,0.82434 -2.106,1.24899c-0.63276,0.37545 -1.26551,0.7509 -1.91744,1.13773c-5.67235,3.35723 -11.3891,6.63743 -17.10156,9.92578c-8.45421,4.86767 -16.89249,9.76092 -25.3125,14.6875c-8.45953,4.9422 -16.9347,9.85675 -25.43243,14.73294c-1.24165,0.71297 -2.48268,1.42704 -3.72303,2.14227c-1.73147,0.99796 -3.46569,1.99115 -5.20001,2.98417c-1.49116,0.85609 -1.49116,0.85609 -3.01245,1.72949c-5.23605,2.79861 -5.23605,2.79861 -7.75708,3.47363c-2.35815,-0.82007 -2.35815,-0.82007 -4.82422,-2.33984c-1.39871,-0.841 -1.39871,-0.841 -2.82568,-1.69898c-1.00241,-0.62656 -2.00482,-1.25313 -3.0376,-1.89868c-2.17254,-1.31356 -4.34574,-2.62602 -6.51953,-3.9375c-1.12229,-0.68449 -2.24458,-1.36898 -3.40088,-2.07422c-5.37318,-3.2485 -10.81998,-6.36591 -16.26709,-9.48828c-2.18516,-1.25866 -4.37005,-2.51778 -6.55469,-3.77734c-1.08507,-0.62504 -2.17013,-1.25007 -3.28808,-1.89405c-6.50811,-3.74976 -13.01349,-7.50424 -19.51856,-11.25927c-5.48851,-3.16773 -10.97934,-6.33132 -16.47461,-9.48731c-1.11633,-0.64195 -2.23265,-1.28391 -3.38281,-1.94531c-2.07465,-1.19292 -4.15007,-2.38451 -6.22656,-3.57422c-1.97229,-1.13485 -3.92563,-2.30328 -5.85857,-3.50392c-2.8381,-1.68148 -5.68238,-2.85098 -8.77322,-3.99594c-5.87139,-2.42972 -11.031,-5.07865 -15.0479,-10.12514c-3.48538,-9.3431 -2.60063,-20.06692 -2.32426,-29.895c0.09226,-3.95675 0.07688,-7.91327 0.0758,-11.8709c0.01389,-6.63738 0.10414,-13.27014 0.24529,-19.90597c0.16247,-7.66281 0.22362,-15.32104 0.22656,-22.98546c0.00382,-8.18203 0.07625,-16.36237 0.17147,-24.54381c0.02307,-2.34945 0.03392,-4.6987 0.04226,-7.04825c0.01687,-3.69364 0.08017,-7.38375 0.17904,-11.07608c0.04338,-1.99502 0.04333,-3.99085 0.04189,-5.98634c0.29662,-8.58135 0.29662,-8.58135 3.33708,-11.8007c2.27968,-1.5427 4.50254,-2.75068 7.00487,-3.88749c0.90823,-0.54527 1.81645,-1.09055 2.7522,-1.65234c1.14553,-0.63616 1.14553,-0.63616 2.31421,-1.28516c0.8847,-0.49484 1.7694,-0.98968 2.6809,-1.49951c0.92902,-0.51579 1.85803,-1.03157 2.81519,-1.56299c8.12696,-4.55257 16.21178,-9.16748 24.25,-13.875c11.58932,-6.78365 23.21626,-13.50041 34.85254,-20.20312c4.56954,-2.63335 9.13695,-5.27037 13.70361,-7.9087c2.22527,-1.28374 4.45211,-2.56474 6.68067,-3.84277c4.52944,-2.59932 9.04543,-5.20389 13.48193,-7.95947c0.96728,-0.58987 0.96728,-0.58987 1.9541,-1.19165c1.60263,-0.98246 3.19225,-1.98606 4.78027,-2.99195c3.6669,-1.3777 5.1373,-0.44674 8.73438,0.97266z"/>
  <path id="svg_4" fill="#FCFDFC" d="m0,2c84.15,0 168.3,0 255,0c-2.82922,2.82922 -5.12264,4.35783 -8.57422,6.30078c-1.13043,0.64034 -2.26085,1.28068 -3.42554,1.94043c-0.60069,0.33737 -1.20138,0.67474 -1.82028,1.02234c-3.18527,1.78916 -6.36158,3.59415 -9.53933,5.39661c-0.6455,0.36552 -1.29099,0.73104 -1.95604,1.10763c-6.07156,3.44149 -12.10108,6.9531 -18.12209,10.48221c-7.33097,4.29161 -14.68015,8.54736 -22.0625,12.75c-7.42231,4.22617 -14.81397,8.50178 -22.1875,12.8125c-11.65343,6.81273 -23.34206,13.56319 -35.03906,20.30078c-3.23819,1.8664 -6.47483,3.73546 -9.71094,5.60547c-10.62128,6.13634 -21.25323,12.25288 -31.90881,18.32941c-10.26845,5.85585 -20.50643,11.76073 -30.71009,17.72894c-7.36367,4.30592 -14.74238,8.58509 -22.1311,12.8479c-0.97147,0.56082 -1.94294,1.12165 -2.94385,1.69946c-10.27242,5.92212 -20.57346,11.79257 -30.86865,17.67554c0,97.35 0,194.7 0,295c9.24,5.28 18.48,10.56 28,16c12,7 12,7 17.875,10.4375c6.6831,3.89848 13.40272,7.73219 20.125,11.5625c8.69402,4.95379 17.36497,9.94378 26,15c8.59517,5.0319 17.2232,10.00375 25.875,14.9375c18.41698,10.50384 36.78174,21.09582 55.08691,31.79346c7.3315,4.28172 14.68108,8.53132 22.03809,12.76904c9.48491,5.4636 18.95215,10.95637 28.40039,16.48315c4.76389,2.78547 9.53398,5.55865 14.32227,8.30201c1.33816,0.76812 1.33816,0.76812 2.70337,1.55175c1.67836,0.96216 3.35846,1.92129 5.04052,2.87696c1.86066,1.06767 3.69988,2.17258 5.53345,3.28613c0,0.33 0,0.66 0,1c-84.15,0 -168.3,0 -255,0c0,-193.71 0,-387.42 0,-587z"/>
  <path id="svg_5" fill="#FCFCFC" d="m259,2c83.82,0 167.64,0 254,0c0,193.71 0,387.42 0,587c-83.82,0 -167.64,0 -254,0c3.02206,-2.26655 5.84182,-4.14527 9.09375,-6.01172c1.52391,-0.877 1.52391,-0.877 3.07861,-1.77173c1.64718,-0.9425 1.64718,-0.9425 3.32764,-1.90405c1.16011,-0.66638 2.3201,-1.33297 3.47998,-1.99976c7.20385,-4.13836 14.41999,-8.25523 21.63574,-12.3728c0.57841,-0.33006 1.15682,-0.66012 1.75275,-1.00018c1.17602,-0.67103 2.35208,-1.34196 3.5282,-2.01282c9.08764,-5.18476 18.13974,-10.42782 27.17071,-15.71063c10.52373,-6.15424 21.08658,-12.2401 31.65039,-18.3252c5.42883,-3.12791 10.85542,-6.25969 16.28223,-9.39111c2.16666,-1.25002 4.33332,-2.50002 6.5,-3.75c1.0725,-0.61875 2.145,-1.2375 3.25,-1.875c20.58333,-11.875 41.16667,-23.75 61.75,-35.625c1.07347,-0.61931 2.14693,-1.23863 3.25293,-1.87671c2.15688,-1.24434 4.31378,-2.48864 6.4707,-3.73291c4.98628,-2.8765 9.97238,-5.75331 14.95764,-8.63156c1.7351,-1.00173 3.47026,-2.00334 5.20545,-3.00491c2.15379,-1.24325 4.30744,-2.48672 6.46094,-3.73047c7.70487,-4.44704 15.42812,-8.8596 23.15234,-13.27344c0.33,-97.35 0.66,-194.7 1,-295c-1.65,-0.66 -3.3,-1.32 -5,-2c-1.91656,-1.02515 -3.81506,-2.08443 -5.69922,-3.16797c-1.67014,-0.95737 -1.67014,-0.95737 -3.37402,-1.93408c-1.20481,-0.69506 -2.40956,-1.39021 -3.61426,-2.08545c-1.25539,-0.72145 -2.51092,-1.44263 -3.7666,-2.16357c-3.2271,-1.85396 -6.45186,-3.71194 -9.67597,-5.57111c-1.77914,-1.02549 -3.55897,-2.04977 -5.33917,-3.07343c-11.49169,-6.60801 -22.96291,-13.24967 -34.40576,-19.94189c-9.81135,-5.73695 -19.66938,-11.38991 -29.54224,-17.02002c-16.15337,-9.2128 -32.24796,-18.52758 -48.33862,-27.84936c-6.59805,-3.82159 -13.20185,-7.63319 -19.80664,-11.44312c-1.09812,-0.63349 -2.19624,-1.26699 -3.32764,-1.91968c-5.56828,-3.21191 -11.13734,-6.42247 -16.70752,-9.6311c-11.57434,-6.66933 -23.13052,-13.36794 -34.66259,-20.11011c-9.87385,-5.76539 -19.79994,-11.43836 -29.73975,-17.08911c0,-0.33 0,-0.66 0,-1z"/>
  <path id="svg_6" fill="#EFFAF6" d="m0,103c26.4,0 52.8,0 80,0c-2.70272,2.70272 -4.79493,4.18343 -8.06641,6.04688c-1.02972,0.58998 -2.05943,1.17997 -3.12036,1.78784c-1.11399,0.63204 -2.22798,1.26408 -3.37573,1.91528c-1.16785,0.66722 -2.33541,1.33496 -3.50269,2.00317c-2.42963,1.39038 -4.86052,2.77854 -7.29223,4.16529c-5.66486,3.23348 -11.30852,6.50374 -16.95508,9.76904c-11.20642,6.4777 -22.44878,12.89038 -33.6875,19.3125c-0.33,97.35 -0.66,194.7 -1,295c-0.33,0 -0.66,0 -1,0c-0.33,-81.84 -0.66,-163.68 -1,-248c-0.33,0 -0.66,0 -1,0c0,-30.36 0,-60.72 0,-92z"/>
  <path id="svg_7" fill="#A4A4A4" d="m0,0c169.29,0 338.58,0 513,0c0,0.66 0,1.32 0,2c-36.96426,0.20517 -73.92863,0.38782 -110.89309,0.55281c-2.16149,0.00965 -4.32299,0.01934 -6.48449,0.02903c-75.24654,0.33655 -150.48982,0.48917 -282.11684,-0.00966c-2.13832,-0.00972 -4.27664,-0.01939 -6.41496,-0.02907c-35.69697,-0.16174 -71.39385,-0.34162 -107.09062,-0.54311c0,-0.66 0,-1.32 0,-2z"/>
  <path id="svg_8" fill="#040500" d="m191,281c16.54545,0 16.54545,0 22.375,5.0625c2.9439,3.51003 2.91053,6.17532 2.83203,10.62109c-0.44211,4.94667 -2.26294,7.50106 -5.95703,10.69141c-5.6969,2.99056 -13.07431,1.84361 -19.25,1.625c0,-9.24 0,-18.48 0,-28z"/>
  <path id="svg_9" fill="#0F1202" d="m252,290c2.33945,0.2873 4.67391,0.61937 7,1c0,0.66 0,1.32 0,2c0.51563,-0.51562 1.03125,-1.03125 1.5625,-1.5625c2.4375,-1.4375 2.4375,-1.4375 6.0625,-1.3125c3.375,0.875 3.375,0.875 5.375,3.875c0.14221,2.60245 0.18803,5.09118 0.125,7.6875c-0.00902,0.70189 -0.01805,1.40379 -0.02734,2.12695c-0.02352,1.72867 -0.05939,3.45715 -0.09766,5.18555c-1.98,0 -3.96,0 -6,0c-0.495,-6.435 -0.495,-6.435 -1,-13c-1.32,0 -2.64,0 -4,0c-0.33,4.29 -0.66,8.58 -1,13c-1.98,0 -3.96,0 -6,0c0,-4.62 0,-9.24 0,-14c-1.32,0.33 -2.64,0.66 -4,1c-0.33,4.29 -0.66,8.58 -1,13c-1.98,0 -3.96,0 -6,0c0,-5.94 0,-11.88 0,-18c2.66667,0 5.33333,0 8,0c0.33,-0.33 0.66,-0.66 1,-1z"/>
  <path id="svg_10" fill="#0B0D01" d="m232,290c3.65782,2.03994 5.66946,3.50419 8,7c0.50835,3.89737 0.32962,5.50557 -1.875,8.8125c-2.9842,3.07197 -4.75712,3.39955 -8.9375,3.5625c-3.79669,-0.05494 -5.00788,-0.26004 -8.3125,-2.375c-2.0743,-3.31888 -2.60771,-5.21941 -2.375,-9.06641c0.84837,-3.28079 2.91183,-4.90003 5.5,-6.93359c2.86608,-1.43304 4.81301,-1.30644 8,-1z"/>
  <path id="svg_11" fill="#0F1202" d="m284.375,289.625c1.12535,-0.04254 1.12535,-0.04254 2.27344,-0.08594c3.45058,0.67636 4.99385,1.85961 7.35156,4.46094c0.37399,2.81239 0.48293,4.97592 0.3125,7.75c-0.02256,0.69738 -0.04512,1.39477 -0.06836,2.11328c-0.05867,1.71317 -0.14835,3.42523 -0.24414,5.13672c-2.66667,0 -5.33333,0 -8,0c-1.29937,0.06188 -2.59875,0.12375 -3.9375,0.1875c-2.62491,-0.00953 -3.77494,-0.01676 -6.0625,-1.375c-1.38324,-2.50712 -1.49315,-3.99448 -1,-6.8125c1.5625,-1.8125 1.5625,-1.8125 4,-3c6.15152,-0.42424 6.15152,-0.42424 9,1c-0.33,-0.99 -0.66,-1.98 -1,-3c-2.97,0 -5.94,0 -9,0c-0.33,-1.32 -0.66,-2.64 -1,-4c3.04733,-2.03155 3.8942,-2.3156 7.375,-2.375z"/>
  <path id="svg_12" fill="#111402" d="m324,290c2.14844,1.53516 2.14844,1.53516 4,4c0.29115,2.73683 0.38322,5.0394 0.25,7.75c-0.01805,0.69738 -0.03609,1.39477 -0.05469,2.11328c-0.04692,1.71284 -0.11866,3.42496 -0.19531,5.13672c-2.31,0 -4.62,0 -7,0c0,-4.62 0,-9.24 0,-14c-1.65,0.33 -3.3,0.66 -5,1c-0.33,4.29 -0.66,8.58 -1,13c-1.98,0 -3.96,0 -6,0c0,-5.94 0,-11.88 0,-18c2.66667,0 5.33333,0 8,0c2.59135,-1.29568 4.12296,-1.3425 7,-1z"/>
  <path id="svg_13" fill="#0E0805" d="m301,143c4.52144,1.75708 8.53154,3.53154 12,7c-0.18248,3.34546 -0.42554,6.01065 -2.125,8.9375c-3.01413,1.70801 -5.49588,1.42455 -8.875,1.0625c-1.9375,-1.5 -1.9375,-1.5 -3,-3c-1.485,2.475 -1.485,2.475 -3,5c-1.32,-0.33 -2.64,-0.66 -4,-1c0.54793,-4.61826 2.58964,-7.9815 5.0625,-11.8125c0.37705,-0.59748 0.7541,-1.19496 1.14258,-1.81055c0.92482,-1.46332 1.85894,-2.92075 2.79492,-4.37695z"/>
  <path id="svg_14" fill="#0D0805" d="m317,152c1.32,0.66 2.64,1.32 4,2c0,0.66 0,1.32 0,2c0.96938,0.12375 1.93875,0.2475 2.9375,0.375c1.51594,0.30938 1.51594,0.30938 3.0625,0.625c1.42662,2.85324 1.31034,4.83455 1,8c-1.5625,2.9375 -1.5625,2.9375 -4,5c-3.75,-0.1875 -3.75,-0.1875 -7,-1c-0.33,-1.32 -0.66,-2.64 -1,-4c-0.66,0 -1.32,0 -2,0c-0.66,1.98 -1.32,3.96 -2,6c-3,0 -3,0 -5,-1c1.52854,-4.27187 3.71509,-7.99327 6.125,-11.8125c0.37254,-0.59748 0.74508,-1.19496 1.12891,-1.81055c0.91179,-1.46121 1.82845,-2.9194 2.74609,-4.37695z"/>
  <path id="svg_15" fill="#160D08" d="m295,130c-0.13931,3.08366 -0.28759,6.16683 -0.4375,9.25c-0.03932,0.8727 -0.07863,1.74539 -0.11914,2.64453c-0.0419,0.84434 -0.08379,1.68867 -0.12695,2.5586c-0.03666,0.77504 -0.07332,1.55009 -0.11109,2.34863c-0.20135,2.15574 -0.62261,4.11625 -1.20532,6.19824c-2.375,-0.625 -2.375,-0.625 -5,-2c-0.69101,-1.99172 -1.35903,-3.99162 -2,-6c-2.39534,-1.19767 -3.51141,-1.14806 -6.0625,-0.375c-0.63937,0.12375 -1.27875,0.2475 -1.9375,0.375c-1.62109,-1.47656 -1.62109,-1.47656 -3,-3c18,-12 18,-12 20,-12z"/>
  <path id="svg_16" fill="#0A0604" d="m393,197c2.875,1.5625 2.875,1.5625 5,4c0.48821,3.47849 0.62897,5.78137 -1,8.9375c-3.25225,1.72776 -6.47175,1.8221 -10,1.0625c-2.76386,-2.41838 -3.79836,-3.96657 -4.5,-7.5625c1.18802,-5.79159 4.98623,-7.33771 10.5,-6.4375z"/>
  <path id="svg_17" fill="#D7F807" d="m198,287c6,0 6,0 8.875,1.5c2.248,2.64471 2.4914,3.26496 2.625,6.5625c-0.5,3.9375 -0.5,3.9375 -1.5,5.875c-3.21037,1.70551 -6.393,1.76684 -10,2.0625c0,-5.28 0,-10.56 0,-16z"/>
  <path id="svg_18" fill="#0D0705" d="m359,179c3.46265,0.31479 5.58586,0.70267 8.4375,2.75c1.5625,2.25 1.5625,2.25 1.5625,4.625c-1.23236,3.23495 -2.98109,5.82458 -5,8.625c-1.32,-0.33 -2.64,-0.66 -4,-1c0,-0.66 0,-1.32 0,-2c-0.78375,-0.12375 -1.5675,-0.2475 -2.375,-0.375c-2.625,-0.625 -2.625,-0.625 -4.625,-2.625c0.375,-2.625 0.375,-2.625 1,-5c2.25,-0.6875 2.25,-0.6875 5,-1c2.3125,1.4375 2.3125,1.4375 4,3c-0.33,-0.99 -0.66,-1.98 -1,-3c-0.99,-0.33 -1.98,-0.66 -3,-1c0,-0.99 0,-1.98 0,-3z"/>
  <path id="svg_19" fill="#0E0805" d="m403,204c1.29409,0.61996 2.5852,1.24616 3.875,1.875c0.7193,0.34805 1.43859,0.69609 2.17969,1.05469c1.94531,1.07031 1.94531,1.07031 3.94531,3.07031c-0.22713,4.9969 -2.06989,8.03017 -5,12c-1.32,-0.66 -2.64,-1.32 -4,-2c0.495,-0.9075 0.99,-1.815 1.5,-2.75c1.77937,-3.25873 1.77937,-3.25873 1.5,-7.25c-0.66,0 -1.32,0 -2,0c-1.32,2.31 -2.64,4.62 -4,7c-1.65,-0.33 -3.3,-0.66 -5,-1c0.97704,-1.81365 1.95669,-3.62589 2.9375,-5.4375c0.54527,-1.00934 1.09055,-2.01867 1.65234,-3.05859c1.41016,-2.50391 1.41016,-2.50391 2.41016,-3.50391z"/>
  <path id="svg_20" fill="#0E1101" d="m298,291c1.98,0 3.96,0 6,0c0,5.94 0,11.88 0,18c-1.98,0 -3.96,0 -6,0c0,-5.94 0,-11.88 0,-18z"/>
  <path id="svg_21" fill="#110A06" d="m353,173c2,1.5625 2,1.5625 3,3c-0.33,0.99 -0.66,1.98 -1,3c-0.66,0 -1.32,0 -2,0c0,-0.66 0,-1.32 0,-2c-1.65,0 -3.3,0 -5,0c-0.33,1.32 -0.66,2.64 -1,4c2.475,0.99 2.475,0.99 5,2c-0.66,1.32 -1.32,2.64 -2,4c-2.63361,-0.37623 -4.0722,-1.05215 -6.25,-2.625c-2.41596,-3.2788 -2.25644,-5.39585 -1.75,-9.375c2.21987,-4.43975 6.89858,-3.15352 11,-2z"/>
  <path id="svg_22" fill="#000A06" d="m358,88c5.75,1.75 5.75,1.75 8,4c-0.15028,4.05767 -0.40845,6.30089 -3.0625,9.4375c-0.63938,0.51563 -1.27875,1.03125 -1.9375,1.5625c-0.66,-0.33 -1.32,-0.66 -2,-1c0,-0.66 0,-1.32 0,-2c-1.65,-0.33 -3.3,-0.66 -5,-1c-0.38219,-1.65615 -0.71395,-3.32457 -1,-5c1,-1 1,-1 3.875,-1.1875c3.125,0.1875 3.125,0.1875 6.125,2.1875c-1.72226,-3.2485 -1.72226,-3.2485 -5,-4c0,-0.99 0,-1.98 0,-3z"/>
  <path id="svg_23" fill="#000D08" d="m450.0625,142.25c2.9375,0.75 2.9375,0.75 4.9375,2.75c0.125,3.125 0.125,3.125 0,6c-0.99,0.495 -0.99,0.495 -2,1c-2.47502,-1.11432 -4.67883,-2.58151 -7,-4c2.00729,3.01094 2.83884,3.63016 6,5c0,0.66 0,1.32 0,2c-2.9462,-0.32736 -5.3536,-0.62467 -7.9375,-2.125c-1.75897,-3.10406 -0.91187,-5.53821 -0.0625,-8.875c3,-2 3,-2 6.0625,-1.75z"/>
  <path id="svg_24" fill="#0D0805" d="m337,154c1.32,0.33 2.64,0.66 4,1c-0.94623,4.44411 -3.05483,7.82911 -5.375,11.6875c-0.39961,0.689 -0.79922,1.37801 -1.21094,2.08789c-3.05114,5.10364 -3.05114,5.10364 -6.41406,6.22461c-0.66,-0.33 -1.32,-0.66 -2,-1c1.63953,-4.63932 4.06871,-8.63856 6.625,-12.8125c0.42023,-0.69287 0.84047,-1.38574 1.27344,-2.09961c1.03051,-1.698 2.06558,-3.39323 3.10156,-5.08789z"/>
  <path id="svg_25" fill="#00140C" d="m329,70c3.11198,1.49836 6.05346,3.19934 9,5c-0.51036,4.38908 -1.52214,7.33708 -4,11c-1.32,-0.66 -2.64,-1.32 -4,-2c1.32,-2.97 2.64,-5.94 4,-9c-3.99996,1.33332 -4.83782,3.49578 -7,7c-0.99,-0.33 -1.98,-0.66 -3,-1c0.67098,-4.1936 2.85584,-7.40334 5,-11z"/>
  <path id="svg_26" fill="#00110A" d="m396,110c0.99,0.33 1.98,0.66 3,1c-0.69942,3.14737 -1.76079,6.02589 -3,9c0.99,0.33 1.98,0.66 3,1c0.30938,-0.78375 0.61875,-1.5675 0.9375,-2.375c1.0625,-2.625 1.0625,-2.625 2.0625,-4.625c1.32,0.33 2.64,0.66 4,1c-1.33488,3.59391 -2.96023,6.75491 -5,10c-3.49695,-0.64758 -6.12553,-1.90241 -9,-4c-0.79688,-1.87109 -0.79688,-1.87109 -1,-4c0.99609,-1.92187 0.99609,-1.92187 2.4375,-3.75c0.47309,-0.61359 0.94617,-1.22719 1.43359,-1.85937c0.37254,-0.45891 0.74508,-0.91782 1.12891,-1.39063z"/>
  <path id="svg_27" fill="#0E0805" d="m376,182c1.32,0.66 2.64,1.32 4,2c-0.66,2.97 -1.32,5.94 -2,9c-0.99,0 -1.98,0 -3,0c-1.32,2.31 -2.64,4.62 -4,7c-1.32,-0.66 -2.64,-1.32 -4,-2c0.30035,-0.62648 0.6007,-1.25297 0.91016,-1.89844c0.57041,-1.2259 0.57041,-1.2259 1.15234,-2.47656c0.38285,-0.81211 0.7657,-1.62422 1.16016,-2.46094c0.25652,-0.71414 0.51304,-1.42828 0.77734,-2.16406c-0.33,-0.66 -0.66,-1.32 -1,-2c0.33,-0.66 0.66,-1.32 1,-2c0.99,0 1.98,0 3,0c0.66,-0.99 1.32,-1.98 2,-3z"/>
  <path id="svg_28" fill="#000E08" d="m426,128c0.99,0.33 1.98,0.66 3,1c-0.78697,3.41022 -1.8712,6.68885 -3,10c0.99,0 1.98,0 3,0c0.30938,-0.78375 0.61875,-1.5675 0.9375,-2.375c1.0625,-2.625 1.0625,-2.625 2.0625,-4.625c1.32,0.33 2.64,0.66 4,1c-1.33488,3.59391 -2.96023,6.75491 -5,10c-3.4854,-0.64544 -6.02819,-2.10134 -9,-4c0.43821,-4.55737 0.85041,-7.57653 4,-11z"/>
  <path id="svg_29" fill="#000F09" d="m346,72c1.67543,0.28605 3.34385,0.61781 5,1c0,1.32 0,2.64 0,4c-1.32,0.33 -2.64,0.66 -4,1c0.33,1.32 0.66,2.64 1,4c-1.17562,0.09281 -1.17562,0.09281 -2.375,0.1875c-0.86625,0.26812 -1.7325,0.53625 -2.625,0.8125c-1.37467,2.47636 -1.37467,2.47636 -2,5c-1.32,0 -2.64,0 -4,0c1.53181,-6.41367 2.81845,-10.77294 8,-15c0.33,-0.33 0.66,-0.66 1,-1z"/>
  <path id="svg_30" fill="#00150C" d="m409.9375,118.6875c3.0625,0.3125 3.0625,0.3125 4.9375,1.625c1.125,1.6875 1.125,1.6875 1.125,4.6875c-2.31,-0.33 -4.62,-0.66 -7,-1c0.27618,1.94075 0.27618,1.94075 1,4c0.99,0.66 1.98,1.32 3,2c-0.33,0.66 -0.66,1.32 -1,2c-2.98828,-0.32306 -4.61321,-0.65189 -6.875,-2.6875c-1.53404,-3.1533 -1.06401,-4.98983 -0.125,-8.3125c2,-2 2,-2 4.9375,-2.3125z"/>
  <path id="svg_31" fill="#00120A" d="m369,96c2.31,0.33 4.62,0.66 7,1c0.33,1.32 0.66,2.64 1,4c-0.99,0 -1.98,0 -3,0c0,-0.66 0,-1.32 0,-2c-0.66,0 -1.32,0 -2,0c0.99,1.485 0.99,1.485 2,3c0.125,2.6875 0.125,2.6875 0,5c-2.25,0.6875 -2.25,0.6875 -5,1c-2.3125,-1.4375 -2.3125,-1.4375 -4,-3c0.33,-1.32 0.66,-2.64 1,-4c1.485,0.99 1.485,0.99 3,2c0,0.66 0,1.32 0,2c0.66,0 1.32,0 2,0c-0.51562,-0.55687 -1.03125,-1.11375 -1.5625,-1.6875c-1.4375,-2.3125 -1.4375,-2.3125 -1.125,-5.0625c0.22687,-0.7425 0.45375,-1.485 0.6875,-2.25z"/>
  <path id="svg_32" fill="#000C07" d="m326,61c0.99,0.33 1.98,0.66 3,1c-0.56445,4.34864 -2.15428,7.17828 -4.5625,10.8125c-0.961,1.46373 -0.961,1.46373 -1.94141,2.95703c-0.74056,1.10408 -0.74056,1.10408 -1.49609,2.23047c-1.32,-0.66 -2.64,-1.32 -4,-2c0.93347,-1.75215 1.87195,-3.50164 2.8125,-5.25c0.52207,-0.97453 1.04414,-1.94906 1.58203,-2.95312c1.39512,-2.43043 2.86743,-4.60476 4.60547,-6.79688z"/>
  <path id="svg_33" fill="#000D08" d="m421,121c1.32,0.33 2.64,0.66 4,1c-0.33,2.31 -0.66,4.62 -1,7c-0.99,0.33 -1.98,0.66 -3,1c-1.39712,1.95597 -2.7378,3.95436 -4,6c-0.99,-0.99 -1.98,-1.98 -3,-3c0.47438,-0.72188 0.94875,-1.44375 1.4375,-2.1875c1.50403,-2.70725 2.12849,-4.77444 2.5625,-7.8125c0.66,0 1.32,0 2,0c0.33,-0.66 0.66,-1.32 1,-2z"/>
  <path id="svg_34" fill="#000E08" d="m386,99c-0.66,2.31 -1.32,4.62 -2,7c-0.66,0 -1.32,0 -2,0c-0.99,1.98 -1.98,3.96 -3,6c-1.32,-0.33 -2.64,-0.66 -4,-1c0.30937,-0.70125 0.61875,-1.4025 0.9375,-2.125c1.18824,-2.8694 1.18824,-2.8694 1.4375,-6.0625c0.625,-2.8125 0.625,-2.8125 2.4375,-4.25c2.47399,-0.63617 3.80639,-0.4129 6.1875,0.4375z"/>
  <path id="svg_35" fill="#341E14" d="m355,183c2.9375,0.25 2.9375,0.25 6,1c0.66,0.99 1.32,1.98 2,3c-0.33,0.99 -0.66,1.98 -1,3c-0.66,0 -1.32,0 -2,0c0,0.66 0,1.32 0,2c-4.75,-0.75 -4.75,-0.75 -7,-3c0.55556,-4.55556 0.55556,-4.55556 2,-6z"/>
  <path id="svg_36" fill="#001A0F" d="m438,136c2.92879,0.6276 5.36096,1.58623 8,3c0,0.66 0,1.32 0,2c-1.11375,0.2475 -2.2275,0.495 -3.375,0.75c-3.67115,0.86005 -3.67115,0.86005 -5.0625,3.375c-0.18563,0.61875 -0.37125,1.2375 -0.5625,1.875c-1.32,-0.33 -2.64,-0.66 -4,-1c1.33488,-3.59391 2.96023,-6.75491 5,-10z"/>
  <path id="svg_37" fill="#D1F107" d="m227,295c4.55556,0.55556 4.55556,0.55556 6,2c0.125,3 0.125,3 0,6c-1,1 -1,1 -3.4375,1.1875c-2.5625,-0.1875 -2.5625,-0.1875 -4.5625,-2.1875c-0.25,-2.5 -0.25,-2.5 0,-5c0.66,-0.66 1.32,-1.32 2,-2z"/>
  <path id="svg_38" fill="#00170E" d="m349,82c0.99,0.33 1.98,0.66 3,1c0,0.66 0,1.32 0,2c1.65,0.33 3.3,0.66 5,1c-0.99,1.485 -0.99,1.485 -2,3c-0.80438,-0.04125 -1.60875,-0.0825 -2.4375,-0.125c-1.26844,0.06188 -1.26844,0.06188 -2.5625,0.125c-1.86244,2.40859 -1.86244,2.40859 -3,5c-0.99,-0.33 -1.98,-0.66 -3,-1c0.67098,-4.1936 2.85584,-7.40334 5,-11z"/>
  <path id="svg_39" fill="#110A06" d="m339,166c1.32,0.33 2.64,0.66 4,1c-0.48325,5.15465 -3.18611,8.8155 -6,13c-1.32,-0.66 -2.64,-1.32 -4,-2c1.56642,-4.30765 3.68336,-8.06171 6,-12z"/>
  <path id="svg_40" fill="#00140C" d="m386,105c3.10381,0.77595 5.25003,1.5268 8,3c-0.33,0.99 -0.66,1.98 -1,3c-0.76312,-0.10313 -1.52625,-0.20625 -2.3125,-0.3125c-0.88687,0.10313 -1.77375,0.20625 -2.6875,0.3125c-1.86244,2.40859 -1.86244,2.40859 -3,5c-1.32,-0.66 -2.64,-1.32 -4,-2c1.65,-2.97 3.3,-5.94 5,-9z"/>
  <path id="svg_41" fill="#0E0805" d="m381,191c1.32,0.33 2.64,0.66 4,1c-1.56642,4.30765 -3.68336,8.06171 -6,12c-1.32,-0.33 -2.64,-0.66 -4,-1c0.63066,-3.21853 1.78021,-5.50801 3.5625,-8.25c0.45504,-0.70641 0.91008,-1.41281 1.37891,-2.14062c0.524,-0.79665 0.524,-0.79665 1.05859,-1.60938z"/>
  <path id="svg_42" fill="#00311D" d="m356.875,92.75c3.125,0.25 3.125,0.25 5,1.75c0.37125,0.495 0.7425,0.99 1.125,1.5c-0.66,0 -1.32,0 -2,0c-0.33,1.98 -0.66,3.96 -1,6c-0.33,-0.66 -0.66,-1.32 -1,-2c-2.52733,-0.65555 -2.52733,-0.65555 -5,-1c-0.38219,-1.65615 -0.71395,-3.32457 -1,-5c1,-1 1,-1 3.875,-1.25z"/>
  <path id="svg_43" fill="#0C0F01" d="m299,281c1.65,0 3.3,0 5,0c0.625,1.875 0.625,1.875 1,4c-0.66,0.66 -1.32,1.32 -2,2c-2.625,-0.375 -2.625,-0.375 -5,-1c0.33,-1.65 0.66,-3.3 1,-5z"/>
  <path id="svg_44" fill="#CD774F" d="m389,201c1.67543,0.28605 3.34385,0.61781 5,1c-0.33,1.65 -0.66,3.3 -1,5c-1.65,0 -3.3,0 -5,0c-0.04272,-1.66612 -0.04064,-3.33383 0,-5c0.33,-0.33 0.66,-0.66 1,-1z"/>
  <path id="svg_45" fill="#CC764E" d="m320.5625,158.9375c1.20656,0.03094 1.20656,0.03094 2.4375,0.0625c0,1.65 0,3.3 0,5c-1.65,0.33 -3.3,0.66 -5,1c-0.38219,-1.65615 -0.71395,-3.32457 -1,-5c1,-1 1,-1 3.5625,-1.0625z"/>
  <path id="svg_46" fill="#CD764E" d="m304,149c2.125,0.9375 2.125,0.9375 4,2c-0.33,1.32 -0.66,2.64 -1,4c-1.9375,0.5625 -1.9375,0.5625 -4,1c-1,-1 -1,-1 -1.0625,-3.5625c0.02062,-0.80437 0.04125,-1.60875 0.0625,-2.4375c0.66,-0.33 1.32,-0.66 2,-1z"/>
  <path id="svg_47" fill="#00C979" d="m368,96c1,3 2,6 3,9c-2,0 -2,0 -3.625,-1.5c-0.45375,-0.495 -0.9075,-0.99 -1.375,-1.5c-0.66,0.66 -1.32,1.32 -2,2c-0.75,-1.75 -0.75,-1.75 -1,-4c3.33333,-4 3.33333,-4 5,-4z"/>
  <path id="svg_48" fill="#B6D309" d="m282,301c1.65,0 3.3,0 5,0c0,1.32 0,2.64 0,4c-1.98,0 -3.96,0 -6,0c0.33,-1.32 0.66,-2.64 1,-4z"/>
  <path id="svg_49" fill="#CCEC08" d="m282,295c2.625,-0.1875 2.625,-0.1875 5,0c0.33,1.32 0.66,2.64 1,4c-2.64,-0.33 -5.28,-0.66 -8,-1c0.66,-0.99 1.32,-1.98 2,-3z"/>
  <path id="svg_50" fill="#1A0F0A" d="m343,160c1.98,0.495 1.98,0.495 4,1c-0.33,1.32 -0.66,2.64 -1,4c-1.32,-0.33 -2.64,-0.66 -4,-1c0.33,-1.32 0.66,-2.64 1,-4z"/>
  <path id="svg_51" fill="#190E09" d="m384,185c1.98,0.495 1.98,0.495 4,1c-0.33,1.32 -0.66,2.64 -1,4c-1.32,-0.33 -2.64,-0.66 -4,-1c0.33,-1.32 0.66,-2.64 1,-4z"/>
  <path id="svg_52" fill="#005835" d="m448,145c1.9375,0.3125 1.9375,0.3125 4,1c0.33,0.99 0.66,1.98 1,3c-0.66,0.66 -1.32,1.32 -2,2c-0.66,-0.33 -1.32,-0.66 -2,-1c-0.625,-2.5625 -0.625,-2.5625 -1,-5z"/>
  <path id="svg_53" fill="#E2F8EF" d="m266,584c0.66,0.33 1.32,0.66 2,1c-1.125,2 -1.125,2 -3,4c-3.1875,0.25 -3.1875,0.25 -6,0c2.29722,-1.74272 4.59867,-3.39911 7,-5z"/>
 </g>
</svg>